<?xml version="1.0" encoding="UTF-8" standalone="no"?>
<svg width="1024" height="1024" viewBox="0 0 1024 1024" xmlns="http://www.w3.org/2000/svg">
  <!-- ワイングラスの形状 -->
  <path d="M512 100
           C 412 100, 312 200, 312 300
           L 312 500
           C 312 600, 412 700, 512 700
           C 612 700, 712 600, 712 500
           L 712 300
           C 712 200, 612 100, 512 100
           Z" 
        fill="#722f37" stroke="#000000" stroke-width="20"/>
  
  <!-- グラスの脚 -->
  <path d="M462 700
           L 462 900
           L 562 900
           L 562 700" 
        fill="#722f37" stroke="#000000" stroke-width="20"/>
  
  <!-- グラスの台座 -->
  <path d="M412 900
           L 612 900
           C 632 900, 642 920, 642 940
           L 382 940
           C 382 920, 392 900, 412 900" 
        fill="#722f37" stroke="#000000" stroke-width="20"/>
  
  <!-- ワインの液体 -->
  <path d="M332 300
           L 332 480
           C 332 580, 412 660, 512 660
           C 612 660, 692 580, 692 480
           L 692 300
           Z" 
        fill="#a8243e" opacity="0.8"/>
</svg>
